<?xml version="1.0" encoding="utf-8"?>
<!-- Generator: Adobe Illustrator 17.0.0, SVG Export Plug-In . SVG Version: 6.00 Build 0)  -->
<!DOCTYPE svg PUBLIC "-//W3C//DTD SVG 1.1//EN" "http://www.w3.org/Graphics/SVG/1.1/DTD/svg11.dtd">
<svg version="1.1" id="Layer_1" xmlns="http://www.w3.org/2000/svg" xmlns:xlink="http://www.w3.org/1999/xlink" x="0px" y="0px"
	 width="466.739px" height="114.057px" viewBox="0 0 466.739 114.057" enable-background="new 0 0 466.739 114.057"
	 xml:space="preserve">
<polygon fill="none" stroke="#233C48" stroke-width="1.664" points="99.038,80.595 99.038,0.832 50.698,0.832 49.619,0.832 
	0.832,0.832 0.832,80.595 52.595,80.595 52.595,68.881 15.67,68.881 15.67,45.566 43.782,45.566 43.782,34.41 15.67,34.41 
	15.67,12.545 49.588,12.545 49.588,12.565 84.17,12.565 84.201,34.461 56.981,34.461 56.981,45.951 84.201,45.951 84.201,80.595 "/>
<g>
	<path fill="#233C48" d="M136.495,55.531h16.383v3.849H141.37v7.184h9.236v3.664h-9.236v7.66h12.132v3.85h-17.006V55.531z"/>
</g>
<g>
	<path fill="#233C48" d="M188.827,81.224c-1.502,0.55-3.225,0.88-5.058,0.88c-8.026,0-13.268-5.755-13.268-13.305v-0.294
		c0-7.66,5.498-13.304,13.268-13.304c7.807,0,13.231,5.534,13.231,13.194v0.293c0,4.325-1.686,7.99-4.545,10.409l2.896,3.116
		l-2.932,2.858L188.827,81.224z M185.859,78.036l-2.565-2.786l2.969-2.785l3.225,3.482c1.54-1.687,2.419-4.179,2.419-7.258v-0.293
		c0-5.388-3.005-9.346-8.137-9.346c-5.167,0-8.21,3.775-8.21,9.419v0.294c0,5.863,3.519,9.492,8.247,9.492
		C184.539,78.255,185.236,78.182,185.859,78.036z"/>
	<path fill="#233C48" d="M215.685,71.768V55.531h4.911v15.871c0,4.801,1.54,6.78,5.424,6.78c3.775,0,5.681-1.687,5.681-7.11V55.531
		h4.911v15.944c0,6.854-3.702,10.629-10.629,10.629C219.424,82.104,215.685,78.512,215.685,71.768z"/>
	<path fill="#233C48" d="M256.837,55.531h4.912v26.207h-4.912V55.531z"/>
	<path fill="#233C48" d="M282.232,55.531h4.874v22.321h11.18v3.886h-16.054V55.531z"/>
	<path fill="#233C48" d="M316.825,55.531h4.912v26.207h-4.912V55.531z"/>
	<path fill="#233C48" d="M342.219,55.531h9.383c5.389,0,8.577,2.053,8.577,6.818v0.146c0,2.602-1.173,4.654-4.142,5.57
		c3.555,0.77,5.241,2.713,5.241,6.194v0.146c0,4.875-3.226,7.331-8.979,7.331h-10.08V55.531z M351.016,66.564
		c3.226,0,4.472-1.174,4.472-3.849v-0.147c0-2.492-1.43-3.555-4.545-3.555h-3.958v7.551H351.016z M351.713,78.255
		c3.263,0,4.765-1.466,4.765-4.178v-0.146c0-2.713-1.502-4.068-5.094-4.068h-4.398v8.393H351.713z"/>
	<path fill="#233C48" d="M380.147,55.531h8.797c5.754,0,9.785,2.346,9.785,7.697v0.146c0,4.105-2.565,6.194-5.827,7.037
		l7.366,11.326h-5.277l-6.854-10.593h-3.115v10.593h-4.875V55.531z M388.944,67.664c3.262,0,4.984-1.393,4.984-4.179v-0.146
		c0-3.006-1.869-4.032-4.984-4.032h-3.922v8.357H388.944z"/>
	<path fill="#233C48" d="M418.589,55.531h4.911v26.207h-4.911V55.531z"/>
	<path fill="#233C48" d="M450.727,55.531h6.377l8.649,26.207h-5.058l-2.09-6.488H448.6l-2.052,6.488h-4.581L450.727,55.531z
		 M449.737,71.695h7.733l-3.849-12.168L449.737,71.695z"/>
</g>
<g>
	<path fill="#233C48" d="M368.712,97.785h8.674v0.845h-7.76v5.05h6.967v0.844h-6.967v5.577h-0.914V97.785z"/>
	<path fill="#233C48" d="M383.009,97.785h0.915V110.1h-0.915V97.785z"/>
	<path fill="#233C48" d="M390.342,97.785h0.863l8.497,10.715V97.785h0.88V110.1h-0.687l-8.673-10.942V110.1h-0.881V97.785z"/>
	<path fill="#233C48" d="M411.555,97.697h0.879l5.735,12.403h-1.003l-1.565-3.448h-7.267l-1.565,3.448h-0.95L411.555,97.697z
		 M415.214,105.825l-3.236-7.125l-3.255,7.125H415.214z"/>
	<path fill="#233C48" d="M423.407,97.785h0.861l8.498,10.715V97.785h0.879V110.1h-0.686l-8.674-10.942V110.1h-0.879V97.785z"/>
	<path fill="#233C48" d="M439.393,103.978v-0.035c0-3.484,2.604-6.369,6.158-6.369c2.199,0,3.518,0.809,4.785,1.971l-0.65,0.668
		c-1.074-1.037-2.306-1.813-4.152-1.813c-2.956,0-5.19,2.411-5.19,5.508v0.035c0,3.113,2.27,5.541,5.208,5.541
		c1.776,0,2.99-0.686,4.24-1.917l0.615,0.599c-1.302,1.283-2.709,2.146-4.891,2.146
		C441.997,110.311,439.393,107.513,439.393,103.978z"/>
	<path fill="#233C48" d="M455.555,97.785h8.762v0.845h-7.846v4.838h7.055v0.845h-7.055v4.943h7.934v0.845h-8.85V97.785z"/>
</g>
</svg>
